<?xml version="1.0" encoding="iso-8859-1"?>
<!-- Generator: Adobe Illustrator 19.0.0, SVG Export Plug-In . SVG Version: 6.00 Build 0)  -->
<svg version="1.1" id="Layer_1" xmlns="http://www.w3.org/2000/svg" xmlns:xlink="http://www.w3.org/1999/xlink" x="0px" y="0px"
	 viewBox="0 0 512 512" style="enable-background:new 0 0 512 512;" xml:space="preserve">
<rect x="181.431" y="-14.21" transform="matrix(0.7071 -0.7071 0.7071 0.7071 -106.0367 256.0084)" style="fill:#F4A026;" width="149.161" height="540.423"/>
<path style="fill:#CA463D;" d="M423.966,168.391l-80.323-80.323l21.622-21.622c16.662-16.662,43.677-16.662,60.339,0l19.984,19.984
	c16.662,16.662,16.662,43.677,0,60.339L423.966,168.391z"/>
<polygon style="fill:#EFEFEF;" points="161.859,430.412 52.876,459.092 81.556,350.109 "/>
<g>
	
		<rect x="188.146" y="92.854" transform="matrix(0.7071 0.7071 -0.7071 0.7071 243.8015 -78.167)" style="fill:#61ACD2;" width="56.222" height="324.715"/>
	
		<rect x="227.74" y="133.012" transform="matrix(0.7071 0.7071 -0.7071 0.7071 283.9623 -94.8078)" style="fill:#61ACD2;" width="57.368" height="324.715"/>
</g>
<rect x="310.789" y="121.496" transform="matrix(-0.7071 -0.7071 0.7071 -0.7071 525.3674 506.5036)" style="fill:#EFEFEF;" width="113.59" height="45.897"/>
<path d="M508.43,385.715L366.157,243.441l88.053-88.053c21.388-21.388,21.388-56.191,0-77.58l-19.984-19.984
	c-21.391-21.388-56.191-21.388-77.581,0l-88.053,88.053L126.286,3.571c-4.762-4.76-12.478-4.76-17.241,0L3.57,109.046
	c-4.76,4.76-4.76,12.479,0,17.241l142.307,142.306l-72.591,72.591c-1.671,1.548-2.92,3.544-3.519,5.823L41.088,455.989
	c-1.103,4.192,0.104,8.656,3.17,11.722c2.316,2.316,5.428,3.571,8.621,3.571c1.034,0,2.075-0.132,3.101-0.401l108.032-28.429
	c2.449-0.432,4.727-1.593,6.511-3.376l72.92-72.92L385.715,508.43c2.381,2.381,5.5,3.571,8.62,3.571s6.239-1.19,8.62-3.571
	l105.474-105.474C513.191,398.195,513.191,390.476,508.43,385.715z M161.901,413.216l-23.326-23.327l212.37-212.37l23.328,23.326
	L161.901,413.216z M416.986,75.065l19.984,19.983c11.882,11.883,11.882,31.217,0,43.099l-13.002,13.002l-63.083-63.083
	l13.002-13.002C385.766,63.182,405.103,63.182,416.986,75.065z M343.643,105.308l63.083,63.083l-15.212,15.214l-63.083-63.083
	L343.643,105.308z M29.431,117.666l88.235-88.235l32.252,32.252l-18.154,18.154c-4.76,4.76-4.76,12.479,0,17.241
	c2.381,2.381,5.5,3.571,8.62,3.571s6.239-1.19,8.62-3.571l18.154-18.154l23.326,23.326l-36.005,36.005
	c-4.76,4.76-4.76,12.479,0,17.241c2.381,2.381,5.5,3.571,8.62,3.571s6.239-1.19,8.62-3.571l36.006-36.006l43.627,43.627
	l-88.235,88.235L29.431,117.666z M311.188,137.761l22.516,22.516l-212.37,212.37l-22.515-22.516L311.188,137.761z M87.944,373.738
	l50.287,50.287l-68.247,17.959L87.944,373.738z M394.335,482.57L260.681,348.917l88.235-88.235l44.405,44.405l-18.154,18.154
	c-4.76,4.76-4.76,12.479,0,17.241c2.381,2.381,5.5,3.571,8.62,3.571c3.12,0,6.239-1.19,8.62-3.571l18.154-18.154l23.326,23.326
	l-36.005,36.003c-4.76,4.76-4.76,12.479,0,17.24c2.381,2.381,5.5,3.571,8.62,3.571c3.12,0,6.239-1.191,8.62-3.571l36.005-36.003
	l31.44,31.44L394.335,482.57z"/>
<g>
</g>
<g>
</g>
<g>
</g>
<g>
</g>
<g>
</g>
<g>
</g>
<g>
</g>
<g>
</g>
<g>
</g>
<g>
</g>
<g>
</g>
<g>
</g>
<g>
</g>
<g>
</g>
<g>
</g>
</svg>
