<?xml version="1.0" encoding="iso-8859-1"?>
<!-- Generator: Adobe Illustrator 19.0.0, SVG Export Plug-In . SVG Version: 6.00 Build 0)  -->
<svg version="1.1" id="Layer_1" xmlns="http://www.w3.org/2000/svg" xmlns:xlink="http://www.w3.org/1999/xlink" x="0px" y="0px"
	 viewBox="0 0 512 512" style="enable-background:new 0 0 512 512;" xml:space="preserve">
<g>
	<path style="fill:#378CD6;" d="M377.263,166.175h-53.895l-71.86-89.825l35.93-53.895h125.754l35.93,53.895L377.263,166.175z"/>
	<g>
		<path style="fill:#6FB8EF;" d="M350.316,139.228c-2.3,0-4.599-0.88-6.351-2.632L290.07,82.701c-3.512-3.512-3.512-9.189,0-12.701
			c3.512-3.512,9.189-3.512,12.701,0l53.895,53.895c3.512,3.512,3.512,9.189,0,12.701
			C354.915,138.348,352.615,139.228,350.316,139.228"/>
		<path style="fill:#6FB8EF;" d="M350.316,139.228c-2.3,0-4.599-0.88-6.351-2.632c-3.512-3.512-3.512-9.189,0-12.701L397.86,70
			c3.512-3.512,9.189-3.512,12.701,0c3.512,3.512,3.512,9.189,0,12.701l-53.895,53.895
			C354.915,138.348,352.615,139.228,350.316,139.228"/>
	</g>
	<path style="fill:#FECB2D;" d="M222.963,427.125c-17.83,11.03-38.768,17.507-61.278,17.507
		c-64.494,0-116.772-52.278-116.772-116.772S97.19,211.088,161.684,211.088c22.51,0,43.448,6.476,61.278,17.507
		c12.908,7.985,24.118,18.387,33.037,30.612c14.058,19.285,22.456,42.963,22.456,68.653c0,25.69-8.399,49.368-22.456,68.653
		c8.92,12.225,20.13,22.627,33.037,30.612c21.432-27.432,34.331-61.835,34.331-99.265s-12.899-71.833-34.331-99.265
		c-9.45-12.099-20.57-22.797-33.037-31.789c-26.579-19.187-59.105-30.63-94.316-30.63C72.533,166.175,0,238.7,0,327.86
		c0,89.151,72.533,161.684,161.684,161.684c35.211,0,67.737-11.444,94.316-30.63C243.532,449.922,232.412,439.224,222.963,427.125"
		/>
	<path style="fill:#D1A014;" d="M350.316,166.175c-35.211,0-67.737,11.444-94.316,30.63c12.468,8.991,23.588,19.69,33.037,31.789
		c17.83-11.03,38.777-17.507,61.278-17.507c64.494,0,116.772,52.278,116.772,116.772S414.81,444.632,350.316,444.632
		c-22.501,0-43.448-6.476-61.278-17.507c-12.908-7.985-24.118-18.387-33.037-30.612c-14.058-19.285-22.456-42.963-22.456-68.653
		c0-25.69,8.399-49.368,22.456-68.653c-8.92-12.225-20.13-22.627-33.037-30.612c-21.432,27.432-34.331,61.835-34.331,99.265
		s12.899,71.833,34.331,99.265c9.45,12.099,20.57,22.798,33.037,31.789c26.579,19.186,59.105,30.63,94.316,30.63
		C439.467,489.544,512,417.011,512,327.86S439.467,166.175,350.316,166.175"/>
	<g>
		<path style="fill:#6FB8EF;" d="M337.614,22.456L290.07,70c-3.512,3.512-3.512,9.189,0,12.701c1.752,1.752,4.051,2.632,6.351,2.632
			c2.299,0,4.599-0.88,6.351-2.632l60.245-60.245H337.614z"/>
		<path style="fill:#6FB8EF;" d="M397.86,82.701c1.752,1.752,4.051,2.632,6.351,2.632c2.299,0,4.599-0.88,6.351-2.632
			c3.512-3.512,3.512-9.189,0-12.701l-47.544-47.544h-25.402L397.86,82.701z"/>
		<path style="fill:#6FB8EF;" d="M251.509,76.351l7.186,8.982h183.242l7.186-8.982l-5.991-8.982H257.5L251.509,76.351z"/>
		<path style="fill:#6FB8EF;" d="M301.811,139.228h97.011l14.372-17.965H287.439L301.811,139.228z"/>
	</g>
</g>
<g>
</g>
<g>
</g>
<g>
</g>
<g>
</g>
<g>
</g>
<g>
</g>
<g>
</g>
<g>
</g>
<g>
</g>
<g>
</g>
<g>
</g>
<g>
</g>
<g>
</g>
<g>
</g>
<g>
</g>
</svg>
